<svg width="32" height="32" viewBox="0 0 32 32" fill="none" xmlns="http://www.w3.org/2000/svg">
<path opacity="0.2" d="M16 32.0001C24.8366 32.0001 32 24.8366 32 16.0001C32 7.16351 24.8366 6.10352e-05 16 6.10352e-05C7.16344 6.10352e-05 0 7.16351 0 16.0001C0 24.8366 7.16344 32.0001 16 32.0001Z" fill="#27AE60"/>
<path d="M16 28.0001C22.6274 28.0001 28 22.6275 28 16.0001C28 9.37264 22.6274 4.00006 16 4.00006C9.37258 4.00006 4 9.37264 4 16.0001C4 22.6275 9.37258 28.0001 16 28.0001Z" fill="#27AE60"/>
<path d="M22.8517 20.8418C22.5622 21.6593 21.4132 22.3373 20.4967 22.5353C19.8697 22.6688 19.0507 22.7753 16.2937 21.6323C12.7672 20.1713 10.4962 16.5878 10.3192 16.3553C10.1497 16.1228 8.89423 14.4578 8.89423 12.7358C8.89423 11.0138 9.76873 10.1753 10.1212 9.81533C10.4107 9.51983 10.8892 9.38483 11.3482 9.38483C11.4967 9.38483 11.6302 9.39233 11.7502 9.39833C12.1027 9.41333 12.2797 9.43433 12.5122 9.99083C12.8017 10.6883 13.5067 12.4103 13.5907 12.5873C13.6762 12.7643 13.7617 13.0043 13.6417 13.2368C13.5292 13.4768 13.4302 13.5833 13.2532 13.7873C13.0762 13.9913 12.9082 14.1473 12.7312 14.3663C12.5692 14.5568 12.3862 14.7608 12.5902 15.1133C12.7942 15.4583 13.4992 16.6088 14.5372 17.5328C15.8767 18.7253 16.9627 19.1063 17.3512 19.2683C17.6407 19.3883 17.9857 19.3598 18.1972 19.1348C18.4657 18.8453 18.7972 18.3653 19.1347 17.8928C19.3747 17.5538 19.6777 17.5118 19.9957 17.6318C20.3197 17.7443 22.0342 18.5918 22.3867 18.7673C22.7392 18.9443 22.9717 19.0283 23.0572 19.1768C23.1412 19.3253 23.1412 20.0228 22.8517 20.8418Z" fill="white"/>
</svg>
