<svg width="26" height="24" viewBox="0 0 26 24" fill="none" xmlns="http://www.w3.org/2000/svg">
<circle cx="20.5" cy="5.5" r="5.5" fill="#BFDFFF"/>
<circle cx="11.5" cy="12.5" r="11.5" fill="white"/>
<path d="M18.7424 7.4744C18.3228 6.93259 17.5599 6.84551 17.0259 7.26155C17.0259 7.26155 10.3699 12.9409 10.1697 13.1151L7.54731 10.7737C7.00377 10.2899 6.18368 10.2415 5.59246 10.7156C4.92495 11.2478 4.80098 12.2153 5.32546 12.9022L8.69161 17.2851C8.71068 17.3045 8.72975 17.3335 8.73929 17.3432C9.39726 18.1269 10.5606 18.2236 11.3426 17.556L18.6566 9.1192L18.6756 9.09985C19.0761 8.64511 19.1143 7.95817 18.7424 7.4744Z" fill="#29CD00"/>
</svg>
