<svg width="26" height="24" viewBox="0 0 26 24" fill="none" xmlns="http://www.w3.org/2000/svg">
<circle cx="20.5" cy="5.5" r="5.5" fill="#EDD9D2"/>
<circle cx="11.5" cy="12.5" r="11.5" fill="white"/>
<path d="M17.5826 16.5507C17.5826 16.5507 16.4196 15.2406 15.061 13.733C14.6904 13.3275 14.6904 12.7037 15.0507 12.2982C16.4607 10.7178 17.5826 9.43894 17.5826 9.43894L17.6032 9.40775C18.0767 8.89829 18.1178 8.1081 17.6855 7.54665C17.2018 6.92281 16.3063 6.81884 15.6888 7.30751C15.6888 7.30751 14.3919 8.472 12.8378 9.85483C12.4261 10.2291 11.7982 10.2083 11.3968 9.82364C9.80149 8.26406 7.54744 6.41335 6.5079 7.45307C5.09782 8.87749 6.87842 10.4475 8.74136 11.7575C9.30745 12.1526 9.82208 13.0676 9.30745 13.5355C8.61786 14.1593 7.89738 14.9391 7.85621 14.9911C6.52848 16.3323 5.6845 17.632 6.51819 18.5365C7.53714 19.649 9.35891 18.3806 10.2338 17.4448C10.594 17.0601 11.0778 16.5299 11.7056 15.8332C12.1379 15.355 12.9922 15.4797 13.4039 15.9684C14.5155 17.2889 15.6991 18.6925 15.6991 18.6925C16.3166 19.1812 17.2018 19.0772 17.6958 18.4534C18.1384 17.8919 18.0869 17.0913 17.6135 16.5922L17.5826 16.5507Z" fill="url(#paint0_radial)"/>
<defs>
<radialGradient id="paint0_radial" cx="0" cy="0" r="1" gradientUnits="userSpaceOnUse" gradientTransform="translate(10.78 15.4234) scale(9.72944 9.82846)">
<stop stop-color="#CB765C"/>
<stop offset="0.2457" stop-color="#C76C50"/>
<stop offset="0.606" stop-color="#C46245"/>
<stop offset="1" stop-color="#C35F41"/>
</radialGradient>
</defs>
</svg>
