<svg width="209" height="198" viewBox="0 0 209 198" fill="none" xmlns="http://www.w3.org/2000/svg">
<circle cx="44.5" cy="108.5" r="44.5" fill="#DEE6FE"/>
<circle cx="157" cy="43" r="21" fill="#EDD9D2"/>
<g filter="url(#filter0_d)">
<circle cx="94" cy="75" r="69" fill="white"/>
</g>
<g clip-path="url(#clip0)">
<path d="M125.791 99.3063C125.494 102.043 123.302 104.188 120.56 104.404C108.924 105.321 97.2881 105.658 85.6513 105.411C78.9142 105.27 72.177 104.935 65.4398 104.404C62.6979 104.188 60.506 102.043 60.2091 99.3063C58.9091 87.3152 58.6575 75.3239 59.4538 63.3328C59.5824 61.405 60.7304 60.8084 61.5691 59.7604C61.9838 59.2432 62.323 58.6166 62.427 57.6629C62.7225 54.9278 64.9144 52.7825 67.6576 52.5662C86.0303 51.1187 98.5537 50.7342 116.926 52.1831C119.669 52.3993 121.861 54.5446 122.158 57.2797C122.47 60.1612 126.355 60.4554 126.546 63.3355C127.343 75.3267 127.091 87.3165 125.791 99.3063Z" fill="#F9F6F9"/>
<path d="M126.547 63.3361L126.519 63.3333C104.174 61.363 81.8277 61.363 59.4817 63.3333L59.4543 63.3374C59.6445 60.4559 59.8963 57.5758 60.2097 54.6944C60.5065 51.9579 62.6984 49.8126 65.4403 49.5964C83.8143 48.1489 102.187 48.1489 120.561 49.5964C123.303 49.8126 125.495 51.9579 125.792 54.6944C126.105 57.5744 126.357 60.4559 126.547 63.3361Z" fill="#9DC6FB"/>
<path d="M67.6575 58.9854C69.43 58.9854 70.8669 57.5485 70.8669 55.7759C70.8669 54.0034 69.43 52.5665 67.6575 52.5665C65.885 52.5665 64.4481 54.0034 64.4481 55.7759C64.4481 57.5485 65.885 58.9854 67.6575 58.9854Z" fill="#DD636E"/>
<path d="M86.9146 58.9854C88.6871 58.9854 90.124 57.5485 90.124 55.7759C90.124 54.0034 88.6871 52.5665 86.9146 52.5665C85.1421 52.5665 83.7052 54.0034 83.7052 55.7759C83.7052 57.5485 85.1421 58.9854 86.9146 58.9854Z" fill="#95D6A4"/>
<path d="M77.2862 58.9854C79.0587 58.9854 80.4956 57.5485 80.4956 55.7759C80.4956 54.0034 79.0587 52.5665 77.2862 52.5665C75.5137 52.5665 74.0768 54.0034 74.0768 55.7759C74.0768 57.5485 75.5137 58.9854 77.2862 58.9854Z" fill="#F6E266"/>
<path d="M106.293 73.7312H84.2974C83.7306 73.7312 83.2712 73.2718 83.2712 72.7051C83.2712 72.1384 83.7306 71.679 84.2974 71.679H106.293C106.859 71.679 107.319 72.1384 107.319 72.7051C107.319 73.2718 106.859 73.7312 106.293 73.7312Z" fill="#365E7D"/>
<path d="M115.862 78.7466H84.2974C83.7306 78.7466 83.2712 78.2872 83.2712 77.7204C83.2712 77.1537 83.7306 76.6943 84.2974 76.6943H115.862C116.429 76.6943 116.888 77.1537 116.888 77.7204C116.888 78.2872 116.429 78.7466 115.862 78.7466Z" fill="#365E7D"/>
<path d="M73.2737 81.3702C72.9084 81.3702 72.5696 81.1756 72.3856 80.8579L69.2501 75.4386C68.9662 74.9482 69.1338 74.3203 69.6243 74.0365C70.1145 73.7528 70.7426 73.9203 71.0264 74.4108L73.1986 78.1651L77.7317 68.9133C77.981 68.4042 78.5959 68.194 79.1047 68.4433C79.6137 68.6926 79.8242 69.3073 79.5748 69.8163L74.1952 80.7956C74.0285 81.1359 73.6879 81.3566 73.3091 81.3698C73.2974 81.3699 73.2854 81.3702 73.2737 81.3702Z" fill="#95D6A4"/>
<path d="M106.293 88.3923H84.2974C83.7306 88.3923 83.2712 87.9329 83.2712 87.3662C83.2712 86.7995 83.7306 86.3401 84.2974 86.3401H106.293C106.859 86.3401 107.319 86.7995 107.319 87.3662C107.319 87.9328 106.859 88.3923 106.293 88.3923Z" fill="#365E7D"/>
<path d="M115.862 93.4077H84.2974C83.7306 93.4077 83.2712 92.9483 83.2712 92.3816C83.2712 91.8149 83.7306 91.3555 84.2974 91.3555H115.862C116.429 91.3555 116.888 91.8149 116.888 92.3816C116.888 92.9483 116.429 93.4077 115.862 93.4077Z" fill="#365E7D"/>
<path d="M73.2737 96.0311C72.9084 96.0311 72.5696 95.8365 72.3856 95.5188L69.2501 90.0995C68.9662 89.609 69.1338 88.9812 69.6243 88.6974C70.1145 88.4137 70.7426 88.5811 71.0264 89.0717L73.1986 92.826L77.7317 83.5742C77.981 83.0651 78.5959 82.8549 79.1047 83.1042C79.6137 83.3534 79.8242 83.9682 79.5748 84.4772L74.1952 95.4565C74.0285 95.7968 73.6879 96.0175 73.3091 96.0307C73.2974 96.0309 73.2854 96.0311 73.2737 96.0311Z" fill="#95D6A4"/>
</g>
<defs>
<filter id="filter0_d" x="11" y="0" width="198" height="198" filterUnits="userSpaceOnUse" color-interpolation-filters="sRGB">
<feFlood flood-opacity="0" result="BackgroundImageFix"/>
<feColorMatrix in="SourceAlpha" type="matrix" values="0 0 0 0 0 0 0 0 0 0 0 0 0 0 0 0 0 0 127 0"/>
<feOffset dx="16" dy="24"/>
<feGaussianBlur stdDeviation="15"/>
<feColorMatrix type="matrix" values="0 0 0 0 0.203854 0 0 0 0 0.361573 0 0 0 0 0.429167 0 0 0 0.08 0"/>
<feBlend mode="normal" in2="BackgroundImageFix" result="effect1_dropShadow"/>
<feBlend mode="normal" in="SourceGraphic" in2="effect1_dropShadow" result="shape"/>
</filter>
<clipPath id="clip0">
<rect width="68" height="68" fill="white" transform="translate(59 43)"/>
</clipPath>
</defs>
</svg>
