<svg width="209" height="198" viewBox="0 0 209 198" fill="none" xmlns="http://www.w3.org/2000/svg">
<circle cx="44.5" cy="108.5" r="44.5" fill="#DEE6FE"/>
<circle cx="157" cy="43" r="21" fill="#EDD9D2"/>
<g filter="url(#filter0_d)">
<circle cx="94" cy="75" r="69" fill="white"/>
</g>
<g clip-path="url(#clip0)">
<path d="M78.1925 106.28V74.9657H80.9381C84.2715 74.9657 86.3549 71.4094 84.6879 68.5645L75.8877 53.5449C74.2211 50.7003 70.055 50.7002 68.3882 53.5447L59.5872 68.5644C57.9201 71.4092 60.0035 74.9658 63.3369 74.9658H66.0838V106.28C66.0838 107.764 67.3038 108.966 68.8086 108.966H75.4674C76.9725 108.966 78.1925 107.763 78.1925 106.28Z" fill="#9DC6FB"/>
<path d="M71.3152 108.967H68.8081C67.3037 108.967 66.084 107.765 66.084 106.282V74.9662H63.3362C60.0027 74.9662 57.9193 71.4105 59.5874 68.565L68.3872 53.5458C69.2206 52.1237 70.679 51.4135 72.1374 51.4135C71.1605 51.4135 70.1835 52.1237 69.6261 53.5458L63.7305 68.565C62.6127 71.4104 64.0092 74.9662 66.2418 74.9662H67.3708C68.5409 74.9662 69.4896 75.901 69.4896 77.0542V106.281C69.4894 107.764 70.3073 108.967 71.3152 108.967Z" fill="#698ED5"/>
<path d="M112.538 81.9768V57.5415H114.462C116.798 57.5415 118.258 55.0491 117.09 53.0553L110.923 42.5293C109.755 40.5357 106.835 40.5356 105.667 42.5291L99.4986 53.0552C98.3303 55.049 99.7904 57.5415 102.127 57.5415H104.052V81.9767C104.052 83.0161 104.907 83.8587 105.961 83.8587H110.628C111.683 83.8588 112.538 83.0162 112.538 81.9768Z" fill="#DD636E"/>
<path d="M107.718 83.8586H105.961C104.907 83.8586 104.052 83.0163 104.052 81.9772V57.5408H102.127C99.7904 57.5408 98.3302 55.0488 99.4993 53.0546L105.666 42.5288C106.25 41.5322 107.272 41.0344 108.295 41.0344C107.61 41.0344 106.925 41.5322 106.534 42.5288L102.403 53.0546C101.619 55.0488 102.598 57.5408 104.163 57.5408H104.954C105.774 57.5408 106.439 58.1959 106.439 59.0041V81.9763C106.439 83.0157 107.012 83.8586 107.718 83.8586Z" fill="#CB5769"/>
<path d="M93.4993 106.875C106.397 106.875 116.853 96.5709 116.853 83.8599C116.853 71.149 106.397 60.8447 93.4993 60.8447C80.6014 60.8447 70.1456 71.149 70.1456 83.8599C70.1456 96.5709 80.6014 106.875 93.4993 106.875Z" fill="#F6E266"/>
<path d="M94.9987 106.828C94.503 106.858 94.0028 106.874 93.4994 106.874C80.6007 106.874 70.1456 96.5694 70.1456 83.8591C70.1456 71.1488 80.6007 60.8438 93.4994 60.8438C94.0027 60.8438 94.5029 60.8602 94.9987 60.8901C82.8034 61.658 73.1533 71.6478 73.1533 83.8591C73.1533 96.0704 82.8034 106.06 94.9987 106.828Z" fill="#FFD064"/>
<path d="M93.4992 101.449C103.357 101.449 111.348 93.5739 111.348 83.859C111.348 74.1441 103.357 66.2687 93.4992 66.2687C83.6414 66.2687 75.6501 74.1441 75.6501 83.859C75.6501 93.5739 83.6414 101.449 93.4992 101.449Z" fill="#D3EFFB"/>
<path d="M96.6181 101.195C95.6297 101.363 94.6125 101.45 93.5758 101.45C83.7179 101.45 75.7262 93.574 75.7262 83.8591C75.7262 74.1441 83.7179 66.2682 93.5758 66.2682C94.6127 66.2682 95.6297 66.3548 96.6181 66.5236C88.211 67.9457 81.8125 75.166 81.8125 83.8589C81.8125 92.5519 88.211 99.7724 96.6181 101.195Z" fill="#9DC6FB"/>
<path d="M93.4994 86.0999H85.2069C83.9511 86.0999 82.9331 85.0967 82.9331 83.8591C82.9331 82.6216 83.9511 81.6183 85.2069 81.6183H93.4994C94.7551 81.6183 95.7732 82.6216 95.7732 83.8591C95.7733 85.0967 94.7553 86.0999 93.4994 86.0999Z" fill="#365E7D"/>
<path d="M93.4992 86.0999C92.2435 86.0999 91.2255 85.0967 91.2255 83.8591V78.1373C91.2255 76.8998 92.2435 75.8965 93.4992 75.8965C94.755 75.8965 95.773 76.8998 95.773 78.1373V83.8591C95.7731 85.0967 94.7551 86.0999 93.4992 86.0999Z" fill="#2B4D66"/>
<path d="M93.4993 71.4387C92.9243 71.4387 92.4581 70.9793 92.4581 70.4126V66.8778C92.4581 66.3111 92.9243 65.8517 93.4993 65.8517C94.0744 65.8517 94.5405 66.3111 94.5405 66.8778V70.4126C94.5407 70.9792 94.0745 71.4387 93.4993 71.4387Z" fill="#365E7D"/>
<path d="M93.4993 101.867C92.9243 101.867 92.4581 101.407 92.4581 100.84V97.3057C92.4581 96.7389 92.9243 96.2795 93.4993 96.2795C94.0744 96.2795 94.5405 96.7389 94.5405 97.3057V100.84C94.5407 101.407 94.0745 101.867 93.4993 101.867Z" fill="#365E7D"/>
<path d="M110.73 84.8852H107.144C106.569 84.8852 106.102 84.4258 106.102 83.8591C106.102 83.2924 106.569 82.833 107.144 82.833H110.73C111.305 82.833 111.772 83.2924 111.772 83.8591C111.772 84.4258 111.305 84.8852 110.73 84.8852Z" fill="#365E7D"/>
<path d="M79.8552 84.8852H76.2684C75.6933 84.8852 75.2272 84.4258 75.2272 83.8591C75.2272 83.2924 75.6933 82.833 76.2684 82.833H79.8552C80.4302 82.833 80.8964 83.2924 80.8964 83.8591C80.8964 84.4258 80.4302 84.8852 79.8552 84.8852Z" fill="#365E7D"/>
<path d="M106.59 77.438C106.23 77.438 105.88 77.2539 105.687 76.9247C105.399 76.4339 105.57 75.8063 106.068 75.523L107.902 74.4797C108.399 74.1966 109.037 74.3645 109.324 74.8553C109.612 75.3461 109.441 75.9737 108.943 76.257L107.109 77.3003C106.946 77.3936 106.766 77.438 106.59 77.438Z" fill="#365E7D"/>
<path d="M78.5781 93.3762C78.2183 93.3762 77.8683 93.1922 77.6755 92.8629C77.3879 92.3722 77.5585 91.7446 78.0566 91.4612L79.8901 90.418C80.388 90.1348 81.025 90.3027 81.3124 90.7936C81.6 91.2843 81.4294 91.912 80.9313 92.1953L79.0978 93.2385C78.9338 93.3317 78.7548 93.3762 78.5781 93.3762Z" fill="#365E7D"/>
<path d="M101.055 71.986C100.878 71.986 100.699 71.9417 100.535 71.8483C100.037 71.5649 99.8665 70.9373 100.154 70.4466L101.213 68.6397C101.5 68.1488 102.137 67.9805 102.635 68.2641C103.133 68.5475 103.304 69.1751 103.016 69.6658L101.958 71.4727C101.765 71.802 101.415 71.986 101.055 71.986Z" fill="#365E7D"/>
<path d="M84.8828 99.5916C84.7061 99.5916 84.5271 99.5473 84.3631 99.4539C83.865 99.1705 83.6944 98.5429 83.982 98.0522L85.0406 96.2453C85.328 95.7544 85.9648 95.5861 86.4629 95.8697C86.961 96.1531 87.1316 96.7806 86.844 97.2714L85.7854 99.0783C85.5926 99.4077 85.2426 99.5916 84.8828 99.5916Z" fill="#365E7D"/>
<path d="M85.9432 71.986C85.5834 71.986 85.2334 71.802 85.0406 71.4727L83.982 69.6658C83.6944 69.1751 83.865 68.5475 84.3631 68.2641C84.8609 67.9808 85.4978 68.1488 85.7854 68.6397L86.844 70.4466C87.1316 70.9373 86.961 71.565 86.4629 71.8483C86.299 71.9415 86.1199 71.986 85.9432 71.986Z" fill="#365E7D"/>
<path d="M102.115 99.5916C101.756 99.5916 101.406 99.4076 101.213 99.0783L100.154 97.2714C99.8665 96.7807 100.037 96.153 100.535 95.8697C101.033 95.5864 101.67 95.7544 101.958 96.2453L103.016 98.0522C103.304 98.5429 103.133 99.1706 102.635 99.4539C102.471 99.5473 102.292 99.5916 102.115 99.5916Z" fill="#365E7D"/>
<path d="M80.4097 77.438C80.2331 77.438 80.0541 77.3936 79.8901 77.3003L78.0566 76.257C77.5585 75.9736 77.3879 75.3461 77.6755 74.8553C77.9629 74.3645 78.5998 74.1963 79.0978 74.4797L80.9313 75.523C81.4294 75.8064 81.6 76.4339 81.3124 76.9247C81.1196 77.2539 80.7696 77.438 80.4097 77.438Z" fill="#365E7D"/>
<path d="M108.421 93.3761C108.245 93.3761 108.066 93.3318 107.902 93.2384L106.068 92.1952C105.57 91.9117 105.399 91.2842 105.687 90.7935C105.975 90.3025 106.611 90.1345 107.109 90.4179L108.943 91.4611C109.441 91.7445 109.612 92.3721 109.324 92.8628C109.131 93.1921 108.781 93.3761 108.421 93.3761Z" fill="#365E7D"/>
<path d="M93.4994 102.475C83.0833 102.475 74.6091 94.1241 74.6091 83.859C74.6091 73.5939 83.0833 65.2426 93.4994 65.2426C103.915 65.2426 112.39 73.5939 112.39 83.859C112.39 94.1241 103.916 102.475 93.4994 102.475ZM93.4994 67.2949C84.2315 67.2949 76.6917 74.7256 76.6917 83.859C76.6917 92.9924 84.2315 100.423 93.4994 100.423C102.767 100.423 110.307 92.9925 110.307 83.859C110.307 74.7255 102.767 67.2949 93.4994 67.2949Z" fill="#FFD064"/>
<path d="M120.918 106.28V96.3864H123.664C126.997 96.3864 129.08 92.8301 127.413 89.9853L118.613 74.9658C116.947 72.1212 112.781 72.1211 111.114 74.9656L102.313 89.9851C100.646 92.83 102.729 96.3866 106.062 96.3866H108.809V106.28C108.809 107.764 110.029 108.966 111.534 108.966H118.193C119.698 108.966 120.918 107.763 120.918 106.28Z" fill="#95D6A4"/>
<path d="M114.041 108.967H111.534C110.029 108.967 108.81 107.765 108.81 106.283V96.3872H106.062C102.728 96.3872 100.645 92.8315 102.313 89.986L111.113 74.9668C111.946 73.5448 113.404 72.8345 114.863 72.8345C113.886 72.8345 112.909 73.5448 112.351 74.9668L106.456 89.986C105.338 92.8314 106.735 96.3872 108.967 96.3872H110.096C111.266 96.3872 112.215 97.322 112.215 98.4752V106.281C112.215 107.764 113.033 108.967 114.041 108.967Z" fill="#78C2A4"/>
</g>
<defs>
<filter id="filter0_d" x="11" y="0" width="198" height="198" filterUnits="userSpaceOnUse" color-interpolation-filters="sRGB">
<feFlood flood-opacity="0" result="BackgroundImageFix"/>
<feColorMatrix in="SourceAlpha" type="matrix" values="0 0 0 0 0 0 0 0 0 0 0 0 0 0 0 0 0 0 127 0"/>
<feOffset dx="16" dy="24"/>
<feGaussianBlur stdDeviation="15"/>
<feColorMatrix type="matrix" values="0 0 0 0 0.203854 0 0 0 0 0.361573 0 0 0 0 0.429167 0 0 0 0.08 0"/>
<feBlend mode="normal" in2="BackgroundImageFix" result="effect1_dropShadow"/>
<feBlend mode="normal" in="SourceGraphic" in2="effect1_dropShadow" result="shape"/>
</filter>
<clipPath id="clip0">
<rect width="69" height="68" fill="white" transform="translate(59 41)"/>
</clipPath>
</defs>
</svg>
