<svg width="209" height="198" viewBox="0 0 209 198" fill="none" xmlns="http://www.w3.org/2000/svg">
<circle cx="44.5" cy="108.5" r="44.5" fill="#DEE6FE"/>
<circle cx="157" cy="43" r="21" fill="#EDD9D2"/>
<g filter="url(#filter0_d)">
<circle cx="94" cy="75" r="69" fill="white"/>
</g>
<g clip-path="url(#clip0)">
<path d="M74.0388 95.0121C67.2288 88.2022 63.3581 81.2193 61.1609 75.3578C57.4286 65.4011 63.6746 54.7358 73.6454 52.7891C74.6083 52.6011 79.6792 54.5966 80.696 56.4261C82.1517 59.0455 84.5298 61.3418 84.5798 65.4964C84.6041 67.5149 81.1572 72.2592 80.2876 72.6461C79.1532 73.1508 77.9566 73.5152 76.8663 73.5152C76.8663 73.5152 76.9686 78.3869 83.8162 85.2346C89.9484 91.3668 95.5355 92.1844 95.5355 92.1844C95.5355 91.0943 95.9 89.8978 96.4045 88.7636C96.7914 87.8938 101.584 85.203 106.38 86.2788C113.835 87.9509 116.45 94.4424 116.262 95.4053C114.315 105.376 103.65 111.622 93.693 107.89C87.8317 105.693 80.8489 101.822 74.0388 95.0121Z" fill="#E7A561"/>
<path d="M113.6 101.728C109.4 107.774 101.391 110.766 93.7449 107.909C87.8722 105.715 80.8682 101.842 74.0387 95.0122C67.2093 88.1827 63.336 81.1787 61.1421 75.306C58.2853 67.6598 61.2771 59.6508 67.3232 55.4513C64.3012 59.7888 63.2931 65.5298 65.3667 71.0813C67.5607 76.954 71.4339 83.958 78.2634 90.7875C85.0929 97.617 92.0969 101.49 97.9696 103.684C103.521 105.758 109.262 104.75 113.6 101.728Z" fill="#E29375"/>
<path d="M116.578 91.9914C116.578 92.1343 116.576 92.2772 116.574 92.4186C116.557 93.4457 116.451 94.4432 116.265 95.4056H116.262C107.998 89.255 96.4062 88.7644 96.4062 88.7644C96.7945 87.8896 97.2662 87.0526 97.7191 86.3301C98.788 84.6222 100.66 83.5655 102.674 83.5898C103.266 83.5965 103.858 83.641 104.445 83.7165C104.808 83.7614 104.706 84.5723 105.064 84.6395C105.383 84.6994 106.163 84.0134 106.476 84.0885C106.993 84.2111 107.502 84.354 108 84.5104C108.364 84.6248 108.384 85.6255 108.735 85.7531C109.018 85.8558 109.633 85.0831 109.906 85.1924C110.358 85.373 110.796 85.5618 111.216 85.7531C111.657 85.9544 111.246 86.9916 111.645 87.1936C111.836 87.2906 112.854 86.5541 113.034 86.6495C113.227 86.7532 113.412 86.8543 113.589 86.9528C115.42 87.9705 116.574 89.8966 116.578 91.9914Z" fill="#F9F6F9"/>
<path d="M85.4611 66.3782C85.4854 68.3921 84.4286 70.2643 82.7221 71.3332C81.9983 71.7848 81.1611 72.2578 80.2878 72.6461C80.2878 72.6461 79.7958 61.0526 73.6466 52.7885C74.609 52.5997 75.6065 52.4947 76.6322 52.4771C76.7751 52.4758 76.9166 52.4745 77.0595 52.4745C79.1542 52.4785 81.0804 53.631 82.098 55.4614C82.1896 55.6259 82.2826 55.7971 82.3784 55.9737C82.5125 56.2267 81.9199 56.7459 82.0572 57.0209C82.2235 57.354 83.1201 57.4478 83.2855 57.8096C83.4823 58.2396 83.6763 58.6884 83.8611 59.1535C83.956 59.3899 83.4135 60.2256 83.5035 60.4697C83.6459 60.856 84.4168 60.6563 84.5432 61.0594C84.6914 61.5338 84.8276 62.0204 84.9476 62.5125C85.0272 62.8408 84.0037 63.5063 84.0668 63.8403C84.1298 64.1742 85.2793 64.1766 85.3237 64.5142C85.4058 65.1314 85.453 65.7555 85.4611 66.3782Z" fill="#F9F6F9"/>
<path d="M84.543 61.0594L82.3391 61.7401C82.2394 61.771 82.1397 61.7859 82.0399 61.7859C81.6085 61.7859 81.2082 61.5069 81.0748 61.0728C80.9103 60.5391 81.2082 59.9742 81.742 59.8085L83.8609 59.1534C84.1063 59.764 84.3368 60.4016 84.543 61.0594Z" fill="#365E7D"/>
<path d="M83.2854 57.8095L81.0209 58.5092C80.9212 58.5401 80.8214 58.555 80.7217 58.555C80.2903 58.555 79.89 58.2759 79.7565 57.8419C79.5921 57.3081 79.8913 56.742 80.4238 56.5775L82.3782 55.9736C82.6748 56.533 82.9835 57.149 83.2854 57.8095Z" fill="#365E7D"/>
<path d="M85.3238 64.5141L82.9932 65.2325C82.8934 65.2634 82.7937 65.2783 82.694 65.2783C82.2626 65.2783 81.8623 64.9992 81.7288 64.5652C81.5644 64.0314 81.8623 63.4653 82.3961 63.3008L84.9477 62.5123C85.1068 63.1688 85.2348 63.8387 85.3238 64.5141Z" fill="#365E7D"/>
<path d="M109.905 85.1925L109.063 87.2454C108.904 87.6363 108.526 87.8735 108.128 87.8735C107.999 87.8735 107.87 87.8491 107.745 87.798C107.229 87.5864 106.98 86.9961 107.193 86.4784L107.999 84.5104C108.657 84.7166 109.295 84.9472 109.905 85.1925Z" fill="#365E7D"/>
<path d="M113.034 86.6496L112.202 88.6796C112.042 89.0704 111.664 89.3078 111.265 89.3078C111.139 89.3078 111.008 89.2835 110.883 89.2323C110.366 89.0208 110.118 88.4303 110.331 87.9127L111.215 85.7533C111.869 86.0512 112.48 86.3559 113.034 86.6496Z" fill="#365E7D"/>
<path d="M106.476 84.0887L105.597 86.2359C105.437 86.6267 105.06 86.8639 104.661 86.8639C104.533 86.8639 104.403 86.8396 104.278 86.7885C103.762 86.5769 103.514 85.9865 103.726 85.4689L104.445 83.7166C105.131 83.8016 105.81 83.9297 106.476 84.0887Z" fill="#365E7D"/>
<path d="M110.41 75.0707C119.54 75.0707 126.942 67.6692 126.942 58.539C126.942 49.4088 119.54 42.0073 110.41 42.0073C101.28 42.0073 93.8785 49.4088 93.8785 58.539C93.8785 67.6692 101.28 75.0707 110.41 75.0707Z" fill="#D3EFFB"/>
<path d="M113.298 74.8312C112.383 74.9899 111.441 75.0713 110.48 75.0713C101.35 75.0713 93.9482 67.6694 93.9482 58.5392C93.9482 49.409 101.35 42.007 110.48 42.007C111.441 42.007 112.383 42.0884 113.298 42.2471C105.512 43.5837 99.5855 50.3692 99.5855 58.5392C99.5855 66.7092 105.512 73.4945 113.298 74.8312Z" fill="#9DC6FB"/>
<path d="M110.41 60.6451H102.729C101.566 60.6451 100.623 59.7022 100.623 58.5391C100.623 57.3761 101.566 56.4331 102.729 56.4331H110.41C111.573 56.4331 110.41 57.3761 110.41 58.5391C110.41 59.7022 110.41 59.9508 110.41 60.6451Z" fill="#365E7D"/>
<path d="M110.41 60.645C109.247 60.645 108.304 59.702 108.304 58.539V53.1614C108.304 51.9984 109.247 51.0554 110.41 51.0554C111.573 51.0554 112.516 51.9984 112.516 53.1614V58.539C112.516 59.702 111.573 60.645 110.41 60.645Z" fill="#2B4D66"/>
<path d="M110.41 46.8687C109.854 46.8687 109.403 46.4176 109.403 45.8613V42.5286C109.403 41.9723 109.854 41.5212 110.41 41.5212C110.966 41.5212 111.417 41.9723 111.417 42.5286V45.8613C111.417 46.4176 110.966 46.8687 110.41 46.8687Z" fill="#365E7D"/>
<path d="M110.41 75.557C109.854 75.557 109.403 75.106 109.403 74.5496V71.217C109.403 70.6606 109.854 70.2096 110.41 70.2096C110.966 70.2096 111.417 70.6606 111.417 71.217V74.5496C111.417 75.106 110.966 75.557 110.41 75.557Z" fill="#365E7D"/>
<path d="M126.42 59.5465H123.088C122.531 59.5465 122.08 59.0955 122.08 58.5391C122.08 57.9828 122.531 57.5317 123.088 57.5317H126.42C126.977 57.5317 127.428 57.9828 127.428 58.5391C127.428 59.0955 126.977 59.5465 126.42 59.5465Z" fill="#365E7D"/>
<path d="M97.7321 59.5465H94.3995C93.8431 59.5465 93.3921 59.0955 93.3921 58.5391C93.3921 57.9828 93.8431 57.5317 94.3995 57.5317H97.7321C98.2886 57.5317 98.7395 57.9828 98.7395 58.5391C98.7395 59.0955 98.2885 59.5465 97.7321 59.5465Z" fill="#365E7D"/>
<path d="M122.573 52.525C122.225 52.525 121.886 52.3444 121.7 52.0212C121.421 51.5393 121.587 50.9232 122.068 50.6451L123.772 49.6615C124.253 49.3834 124.87 49.5483 125.148 50.0303C125.426 50.5121 125.261 51.1283 124.779 51.4064L123.076 52.39C122.917 52.4815 122.744 52.525 122.573 52.525Z" fill="#365E7D"/>
<path d="M96.5454 67.552C96.1973 67.552 95.8587 67.3714 95.672 67.0481C95.3938 66.5663 95.559 65.9502 96.0407 65.6721L97.7443 64.6885C98.226 64.4103 98.8421 64.5753 99.1204 65.0571C99.3986 65.539 99.2334 66.1551 98.7517 66.4332L97.0481 67.4168C96.8895 67.5085 96.7163 67.552 96.5454 67.552Z" fill="#365E7D"/>
<path d="M117.431 47.3848C117.26 47.3848 117.086 47.3412 116.928 47.2496C116.446 46.9714 116.281 46.3552 116.559 45.8734L117.543 44.1698C117.821 43.688 118.437 43.523 118.919 43.8011C119.401 44.0794 119.566 44.6955 119.287 45.1773L118.304 46.8809C118.117 47.2042 117.779 47.3848 117.431 47.3848Z" fill="#365E7D"/>
<path d="M102.404 73.4123C102.233 73.4123 102.06 73.3687 101.901 73.2771C101.419 72.9989 101.254 72.3828 101.532 71.901L102.516 70.1974C102.794 69.7156 103.41 69.5503 103.892 69.8287C104.374 70.1068 104.539 70.7229 104.261 71.2048L103.277 72.9084C103.091 73.2315 102.752 73.4123 102.404 73.4123Z" fill="#365E7D"/>
<path d="M103.389 47.3848C103.041 47.3848 102.703 47.2042 102.516 46.8809L101.533 45.1773C101.254 44.6955 101.42 44.0794 101.901 43.8012C102.383 43.5231 102.999 43.6881 103.277 44.1701L104.261 45.8737C104.539 46.3555 104.374 46.9716 103.892 47.2497C103.734 47.3412 103.56 47.3848 103.389 47.3848Z" fill="#365E7D"/>
<path d="M118.416 73.4122C118.068 73.4122 117.729 73.2316 117.543 72.9083L116.559 71.2047C116.281 70.7229 116.446 70.1068 116.928 69.8285C117.41 69.5503 118.026 69.7154 118.304 70.1972L119.287 71.9008C119.566 72.3827 119.401 72.9988 118.919 73.277C118.76 73.3687 118.587 73.4122 118.416 73.4122Z" fill="#365E7D"/>
<path d="M98.2471 52.525C98.0762 52.525 97.9029 52.4815 97.7443 52.3898L96.0407 51.4062C95.5589 51.128 95.3938 50.5119 95.672 50.0302C95.9501 49.5483 96.5665 49.3831 97.0481 49.6615L98.7517 50.6451C99.2335 50.9233 99.3986 51.5394 99.1204 52.0212C98.9341 52.3443 98.5954 52.525 98.2471 52.525Z" fill="#365E7D"/>
<path d="M124.274 67.552C124.104 67.552 123.93 67.5084 123.772 67.4169L122.068 66.4333C121.586 66.155 121.421 65.5389 121.699 65.0572C121.977 64.5752 122.593 64.4101 123.075 64.6884L124.779 65.672C125.261 65.9502 125.426 66.5664 125.148 67.0481C124.961 67.3712 124.623 67.552 124.274 67.552Z" fill="#365E7D"/>
<path d="M110.41 76.078C100.739 76.078 92.8711 68.2101 92.8711 58.539C92.8711 48.8679 100.739 41 110.41 41C120.081 41 127.949 48.8679 127.949 58.5391C127.949 68.2101 120.081 76.078 110.41 76.078ZM110.41 43.0148C101.85 43.0148 94.8859 49.9789 94.8859 58.539C94.8859 67.0991 101.85 74.0633 110.41 74.0633C118.97 74.0633 125.935 67.0991 125.935 58.539C125.934 49.9789 118.97 43.0148 110.41 43.0148Z" fill="#F6E266"/>
</g>
<defs>
<filter id="filter0_d" x="11" y="0" width="198" height="198" filterUnits="userSpaceOnUse" color-interpolation-filters="sRGB">
<feFlood flood-opacity="0" result="BackgroundImageFix"/>
<feColorMatrix in="SourceAlpha" type="matrix" values="0 0 0 0 0 0 0 0 0 0 0 0 0 0 0 0 0 0 127 0"/>
<feOffset dx="16" dy="24"/>
<feGaussianBlur stdDeviation="15"/>
<feColorMatrix type="matrix" values="0 0 0 0 0.203854 0 0 0 0 0.361573 0 0 0 0 0.429167 0 0 0 0.08 0"/>
<feBlend mode="normal" in2="BackgroundImageFix" result="effect1_dropShadow"/>
<feBlend mode="normal" in="SourceGraphic" in2="effect1_dropShadow" result="shape"/>
</filter>
<clipPath id="clip0">
<rect width="68" height="68" fill="white" transform="translate(60 41)"/>
</clipPath>
</defs>
</svg>
