<svg width="209" height="198" viewBox="0 0 209 198" fill="none" xmlns="http://www.w3.org/2000/svg">
<circle cx="44.5" cy="108.5" r="44.5" fill="#DEE6FE"/>
<circle cx="157" cy="43" r="21" fill="#EDD9D2"/>
<g filter="url(#filter0_d)">
<circle cx="94" cy="75" r="69" fill="white"/>
</g>
<path d="M93.1239 40.0004H98.1019C108.683 40.0004 117.261 48.5783 117.261 59.1596V88.4615H73.9645V59.1596C73.9645 48.5783 82.5424 40.0004 93.1239 40.0004Z" fill="#9D6B6B"/>
<path d="M94.6457 40C90.5333 40 87.2006 48.5783 87.2006 59.1601V88.4615H73.9645V59.1601C73.9645 48.5783 82.5428 40 93.1233 40H94.6457Z" fill="#8B5E5E"/>
<path d="M100.043 90.0232C101.369 90.3776 102.905 90.8479 104.521 91.4539C106.473 92.184 108.542 93.1148 110.502 94.2891C111.531 94.9064 112.228 95.9549 112.41 97.1406C112.726 99.2295 113.244 102.912 113.626 107H77.6018C77.984 102.912 78.5017 99.2295 78.8186 97.1406C78.9998 95.955 79.6973 94.9064 80.7261 94.2891C82.6859 93.1148 84.7551 92.184 86.7068 91.4539C88.3236 90.8479 89.8587 90.3776 91.1849 90.0232" fill="#D3EFFB"/>
<path d="M98.7856 107H92.4424C92.6808 105.218 93.0875 103.247 93.7833 101.715H97.4432C98.139 103.247 98.5472 105.218 98.7856 107Z" fill="#DD636E"/>
<path d="M91.1834 98.6356L93.7844 101.715H95.6141H97.444L100.045 98.6356V92.1493H89.7791" fill="#DD636E"/>
<path d="M83.9419 92.6019C83.1465 93.2699 82.606 94.3918 82.4655 95.6592C82.2043 98.0323 81.7681 102.311 81.466 107H77.6018C77.984 102.912 78.5017 99.2294 78.8186 97.1406C78.9998 95.955 79.6973 94.9063 80.7261 94.289C81.7779 93.6586 82.8622 93.0984 83.9419 92.6019Z" fill="#9DC6FB"/>
<path d="M104.521 91.4544L101.449 99.9861L95.6139 94.3761L89.7785 99.9861L86.7065 91.4544C90.3125 90.1006 93.5184 89.4326 94.8968 89.1844C95.372 89.0977 95.8555 89.0977 96.3307 89.1844C97.7094 89.4326 100.915 90.1006 104.521 91.4544Z" fill="#9DC6FB"/>
<path d="M100.044 82.5474V89.9459C100.044 92.3921 98.0604 94.3756 95.6142 94.3756C93.1667 94.3756 91.183 92.3919 91.183 89.9459V82.5474H100.044Z" fill="#FFDDCE"/>
<path d="M97.0619 94.1343C96.6087 94.2903 96.122 94.3756 95.6155 94.3756C93.168 94.3756 91.1843 92.3919 91.1843 89.9459V82.5474H94.077V89.9459C94.077 91.8867 95.3248 93.5357 97.0619 94.1343Z" fill="#FFCBBE"/>
<path d="M91.1831 82.5474H100.044V89.3633H91.1831V82.5474Z" fill="#FFCBBE"/>
<path d="M77.1068 76.3868C73.9125 76.3868 71.3232 73.7974 71.3232 70.6033C71.3232 70.1636 71.3722 69.7356 71.4652 69.324C72.2154 66.0011 77.1068 66.5461 77.1068 69.9527H114.122C114.122 66.5461 119.013 66.0011 119.764 69.324C119.857 69.7356 119.906 70.1637 119.906 70.6033C119.906 73.7975 117.316 76.3868 114.122 76.3868" fill="#FFCBBE"/>
<path d="M114.121 63.3633V73.5293C114.121 80.9785 108.082 87.0186 100.632 87.0186H90.5949C83.1457 87.0186 77.1056 80.9798 77.1056 73.5293V63.4793C79.4025 63.4126 82.5631 63.0208 85.9678 62.3288C92.9451 60.9105 100.954 58.2297 104.68 54.5038C104.68 54.5038 108.366 62.0356 114.121 63.3633Z" fill="#FFDDCE"/>
<path d="M99.4571 87.0187H90.5949C83.1457 87.0187 77.1056 80.9799 77.1056 73.5294V63.4794C79.4025 63.4128 82.5631 63.0209 85.9678 62.329V73.5294C85.9678 80.9786 92.0066 87.0187 99.4571 87.0187Z" fill="#FFCBBE"/>
<path d="M87.2272 65.9349C87.1665 65.9349 85.1297 65.9503 85.0434 65.9509C84.4689 65.9509 84.0016 66.4183 84.0016 66.9927C84.0016 67.5674 84.4689 68.0347 85.0434 68.0347H85.5272C85.4799 68.3023 85.4558 68.5792 85.4558 68.8591C85.4558 70.4716 86.2503 71.7833 87.2272 71.7833C88.2039 71.7833 88.9988 70.4716 88.9988 68.8591C88.9988 67.2468 88.204 65.9349 87.2272 65.9349Z" fill="#2B4D66"/>
<path d="M106.183 65.9512C106.087 65.9505 103.927 65.9352 103.866 65.9352C102.889 65.9352 102.094 67.2471 102.094 68.8594C102.094 70.4718 102.889 71.7836 103.866 71.7836C104.843 71.7836 105.637 70.4718 105.637 68.8594C105.637 68.5801 105.613 68.3031 105.566 68.035H106.183C106.758 68.035 107.225 67.5676 107.225 66.993C107.225 66.4185 106.758 65.9512 106.183 65.9512Z" fill="#2B4D66"/>
<path d="M95.6131 79.5892C94.4351 79.5892 93.2572 79.1409 92.3605 78.2442C91.867 77.7508 91.867 76.9508 92.3603 76.4574C92.8538 75.9639 93.6539 75.9639 94.1471 76.4573C94.9556 77.2657 96.271 77.2655 97.0793 76.4573C97.5726 75.9638 98.3727 75.9641 98.866 76.4574C99.3593 76.9508 99.3593 77.7508 98.8658 78.2442C97.9691 79.1409 96.7912 79.5892 95.6131 79.5892Z" fill="#DD636E"/>
<defs>
<filter id="filter0_d" x="11" y="0" width="198" height="198" filterUnits="userSpaceOnUse" color-interpolation-filters="sRGB">
<feFlood flood-opacity="0" result="BackgroundImageFix"/>
<feColorMatrix in="SourceAlpha" type="matrix" values="0 0 0 0 0 0 0 0 0 0 0 0 0 0 0 0 0 0 127 0"/>
<feOffset dx="16" dy="24"/>
<feGaussianBlur stdDeviation="15"/>
<feColorMatrix type="matrix" values="0 0 0 0 0.203854 0 0 0 0 0.361573 0 0 0 0 0.429167 0 0 0 0.08 0"/>
<feBlend mode="normal" in2="BackgroundImageFix" result="effect1_dropShadow"/>
<feBlend mode="normal" in="SourceGraphic" in2="effect1_dropShadow" result="shape"/>
</filter>
</defs>
</svg>
