<svg width="209" height="198" viewBox="0 0 209 198" fill="none" xmlns="http://www.w3.org/2000/svg">
<circle cx="44.5" cy="108.5" r="44.5" fill="#DEE6FE"/>
<circle cx="157" cy="43" r="21" fill="#EDD9D2"/>
<g filter="url(#filter0_d)">
<circle cx="94" cy="75" r="69" fill="white"/>
</g>
<g clip-path="url(#clip0)">
<path d="M125.864 90.909H63.1364C61.4114 90.909 60 89.4976 60 87.7726V53.2726C60 51.5476 61.4114 50.1362 63.1364 50.1362H125.864C127.589 50.1362 129 51.5476 129 53.2726V87.7726C129 89.4976 127.589 90.909 125.864 90.909Z" fill="#0E9347"/>
<path d="M118.023 78.3635C114.416 78.3635 111.123 80.0885 109.241 82.9112C107.673 82.1273 105.948 81.4999 103.909 81.4999C98.4206 81.4999 93.8728 85.5773 93.0887 90.909H125.864C127.432 90.909 128.686 89.8113 129 88.2431C128.373 82.7545 123.668 78.3635 118.023 78.3635Z" fill="#0D8944"/>
<path d="M119.591 87.7727H69.4091C69.4091 84.3227 66.5865 81.5 63.1365 81.5V59.5455C66.5865 59.5455 69.4091 56.7228 69.4091 53.2728H119.591C119.591 56.7228 122.414 59.5455 125.864 59.5455V81.5C122.414 81.5 119.591 84.3227 119.591 87.7727Z" fill="#3BB54A"/>
<path d="M118.023 78.3635C114.416 78.3635 111.123 80.0885 109.241 82.9112C107.673 82.1273 105.948 81.4999 103.909 81.4999C99.5184 81.4999 95.7548 84.009 94.0298 87.7726H119.591C119.591 84.3226 122.257 81.6567 125.707 81.4999C123.668 79.6181 121.003 78.3635 118.023 78.3635Z" fill="#0E9347"/>
<path d="M94.5003 84.6361C101.429 84.6361 107.046 78.3173 107.046 70.5225C107.046 62.7278 101.429 56.4089 94.5003 56.4089C87.5716 56.4089 81.9548 62.7278 81.9548 70.5225C81.9548 78.3173 87.5716 84.6361 94.5003 84.6361Z" fill="#0E9347"/>
<path d="M75.6821 73.6589C77.4142 73.6589 78.8185 72.2547 78.8185 70.5225C78.8185 68.7903 77.4142 67.3861 75.6821 67.3861C73.9499 67.3861 72.5457 68.7903 72.5457 70.5225C72.5457 72.2547 73.9499 73.6589 75.6821 73.6589Z" fill="#0E9347"/>
<path d="M113.318 73.6589C115.051 73.6589 116.455 72.2547 116.455 70.5225C116.455 68.7903 115.051 67.3861 113.318 67.3861C111.586 67.3861 110.182 68.7903 110.182 70.5225C110.182 72.2547 111.586 73.6589 113.318 73.6589Z" fill="#0E9347"/>
<path d="M96.0681 68.9546H92.9317C91.9908 68.9546 91.3636 68.3272 91.3636 67.3864C91.3636 66.4455 91.9909 65.8183 92.9317 65.8183H97.6362C98.5772 65.8183 99.2043 65.191 99.2043 64.2502C99.2043 63.3092 98.577 62.682 97.6362 62.682H96.0681C96.0681 61.7411 95.4408 61.1139 94.5 61.1139C93.559 61.1139 92.9318 61.7412 92.9318 62.682C90.2659 62.682 88.2273 64.7206 88.2273 67.3866C88.2273 70.0525 90.2659 72.0911 92.9318 72.0911H96.0682C97.0092 72.0911 97.6364 72.7184 97.6364 73.6592C97.6364 74.6002 97.009 75.2274 96.0682 75.2274H91.3637C90.4228 75.2274 89.7956 75.8547 89.7956 76.7955C89.7956 77.7364 90.4229 78.3636 91.3637 78.3636H92.9318C92.9318 79.3046 93.5592 79.9318 94.5 79.9318C95.4409 79.9318 96.0681 79.3044 96.0681 78.3636C98.734 78.3636 100.773 76.325 100.773 73.6591C100.773 70.9932 98.734 68.9546 96.0681 68.9546Z" fill="#89C763"/>
<path d="M100.773 103.455C106.835 103.455 111.75 98.5399 111.75 92.4773C111.75 86.4147 106.835 81.5 100.773 81.5C94.7101 81.5 89.7954 86.4147 89.7954 92.4773C89.7954 98.5399 94.7101 103.455 100.773 103.455Z" fill="#FFCA5D"/>
<path d="M114.887 100.318C120.949 100.318 125.864 95.4035 125.864 89.3409C125.864 83.2782 120.949 78.3635 114.887 78.3635C108.824 78.3635 103.909 83.2782 103.909 89.3409C103.909 95.4035 108.824 100.318 114.887 100.318Z" fill="#F6B545"/>
<path d="M114.887 78.3635C108.771 78.3635 103.909 83.2249 103.909 89.3409C103.909 95.4568 108.771 100.318 114.887 100.318C121.002 100.318 125.864 95.4568 125.864 89.3409C125.864 83.2249 121.002 78.3635 114.887 78.3635ZM114.887 97.1818C110.496 97.1818 107.046 93.7318 107.046 89.3409C107.046 84.9499 110.496 81.4999 114.887 81.4999C119.277 81.4999 122.727 84.9499 122.727 89.3409C122.727 93.7318 119.277 97.1818 114.887 97.1818Z" fill="#FFCB5B"/>
<path d="M114.886 100.161C121.002 100.318 125.864 95.2999 125.864 89.3408H125.707C124.923 89.3408 124.296 89.9682 124.139 90.7522C123.825 92.9477 122.727 94.9863 121.159 96.3977C119.905 97.6522 118.18 98.4363 116.298 98.7499C115.514 98.7499 114.886 99.3772 114.886 100.161Z" fill="#F6B545"/>
<path d="M114.887 78.5204C108.771 78.3636 103.909 83.3818 103.909 89.3409H104.066C104.85 89.3409 105.477 88.7136 105.634 87.9295C105.948 85.734 107.046 83.6954 108.614 82.284C109.868 81.0295 111.593 80.2454 113.475 79.9317C114.259 79.9318 114.887 79.3045 114.887 78.5204Z" fill="#FFE27A"/>
<path d="M108.143 90.4386C108.143 86.0477 111.593 82.5977 115.984 82.5977C117.866 82.5977 119.591 83.225 121.002 84.4795C119.434 82.5977 117.396 81.5 114.887 81.5C110.496 81.5 107.046 84.95 107.046 89.3409C107.046 91.85 108.143 93.8886 109.868 95.3C108.771 94.0455 108.143 92.3205 108.143 90.4386Z" fill="#F19920"/>
<path d="M119.591 94.2023C119.434 94.2023 119.277 94.2023 119.12 94.0455C118.807 93.7319 118.807 93.2614 119.12 92.9478C120.061 92.0069 120.532 90.5955 120.532 89.3409C120.532 88.8705 120.845 88.5569 121.316 88.5569C121.786 88.5569 122.1 88.8705 122.1 89.3409C122.1 91.0659 121.473 92.7909 120.375 94.0455C120.061 94.2023 119.748 94.2023 119.591 94.2023Z" fill="#FFCB5B"/>
<path d="M114.887 94.0455C113.946 94.0455 113.318 93.4182 113.318 92.4774V86.2047C113.318 85.2638 113.946 84.6366 114.887 84.6366C115.827 84.6366 116.455 85.2639 116.455 86.2047V92.4774C116.455 93.4182 115.828 94.0455 114.887 94.0455Z" fill="#F19920"/>
<path d="M120.689 98.5931C119.591 94.6727 116.768 91.5363 113.161 90.125C112.534 86.5181 110.182 83.3819 107.202 81.5C105.32 83.5386 104.066 86.2045 104.066 89.1841C104.066 95.3 108.927 100.161 115.043 100.161C117.082 100.318 118.964 99.6909 120.689 98.5931Z" fill="#F19920"/>
<path d="M109.868 95.3001C108.771 93.8887 107.986 92.1637 107.986 90.282C107.986 88.0865 108.927 86.0479 110.495 84.6365C110.182 84.166 109.868 83.8524 109.554 83.5388C107.986 84.9502 107.045 86.9888 107.045 89.3412C107.046 91.8501 108.143 93.8887 109.868 95.3001Z" fill="#E78825"/>
<path d="M113.318 90.2819V92.4773C113.318 93.4183 113.946 94.0455 114.886 94.0455C115.827 94.0455 116.455 93.4181 116.455 92.4773V92.1637C115.514 91.3795 114.416 90.7523 113.318 90.2819Z" fill="#E78825"/>
<path d="M120.689 98.593C120.375 97.4954 120.061 96.5544 119.434 95.6135C118.18 96.5544 116.612 97.1816 114.887 97.1816C110.496 97.1816 107.046 93.7316 107.046 89.3407C107.046 86.9884 107.987 84.9498 109.555 83.5384C108.771 82.7543 107.987 82.127 107.046 81.6565C105.164 83.6951 103.909 86.361 103.909 89.3406C103.909 95.4565 108.771 100.318 114.887 100.318C117.082 100.318 118.964 99.6908 120.689 98.593Z" fill="#F6B545"/>
<path d="M120.218 97.1819C119.121 97.966 117.709 98.4364 116.298 98.75C115.514 98.9069 114.886 99.5341 114.886 100.318C117.082 100.318 118.964 99.6908 120.689 98.5931C120.532 98.1227 120.375 97.6524 120.218 97.1819Z" fill="#F19920"/>
<path d="M107.046 81.6569C105.164 83.6955 103.909 86.3614 103.909 89.3409H104.066C104.85 89.3409 105.477 88.7136 105.634 87.9295C105.948 85.7341 107.046 83.8522 108.457 82.4409C107.987 82.2841 107.516 81.9705 107.046 81.6569Z" fill="#FFCB5B"/>
<path d="M100.773 103.455C106.835 103.455 111.75 98.5399 111.75 92.4773C111.75 86.4147 106.835 81.5 100.773 81.5C94.7101 81.5 89.7954 86.4147 89.7954 92.4773C89.7954 98.5399 94.7101 103.455 100.773 103.455Z" fill="#F6B545"/>
<path d="M99.2043 100.318C99.2043 101.416 99.3612 102.357 99.6748 103.455C99.9884 103.455 100.459 103.455 100.772 103.455C106.888 103.455 111.75 98.5932 111.75 92.4772C111.75 91.3796 111.593 90.4386 111.279 89.3408C110.966 89.3408 110.495 89.3408 110.182 89.3408C104.066 89.341 99.2043 94.2024 99.2043 100.318Z" fill="#F19920"/>
<path d="M100.773 81.5C94.6568 81.5 89.7954 86.3614 89.7954 92.4773C89.7954 98.5933 94.6568 103.455 100.773 103.455C106.889 103.455 111.75 98.5931 111.75 92.4773C111.75 86.3615 106.889 81.5 100.773 81.5ZM100.773 100.318C96.3818 100.318 92.9318 96.8681 92.9318 92.4772C92.9318 88.0863 96.3818 84.6363 100.773 84.6363C105.164 84.6363 108.614 88.0863 108.614 92.4772C108.614 96.8681 105.164 100.318 100.773 100.318Z" fill="#FFCB5B"/>
<path d="M100.773 103.298C106.889 103.454 111.75 98.4364 111.75 92.4773H111.593C110.809 92.4773 110.182 93.1046 110.025 93.8887C109.711 96.0842 108.614 98.1228 107.046 99.5342C105.791 100.789 104.066 101.573 102.184 101.886C101.4 101.886 100.773 102.514 100.773 103.298Z" fill="#F6B545"/>
<path d="M100.773 81.6569C94.6568 81.5 89.7954 86.5183 89.7954 92.4774H89.9523C90.7363 92.4774 91.3637 91.85 91.5204 91.066C91.834 88.8705 92.9318 86.8319 94.4999 85.4205C95.7545 84.166 97.4795 83.3819 99.3613 83.0682C100.146 83.0682 100.773 82.441 100.773 81.6569Z" fill="#FFE27A"/>
<path d="M94.0297 93.5751C94.0297 89.1841 97.4797 85.7341 101.871 85.7341C103.752 85.7341 105.477 86.3615 106.889 87.616C105.321 85.7341 103.282 84.6365 100.773 84.6365C96.3819 84.6365 92.9319 88.0865 92.9319 92.4774C92.9319 94.9865 94.0296 97.0251 95.7546 98.4365C94.657 97.1819 94.0297 95.4569 94.0297 93.5751Z" fill="#F19920"/>
<path d="M105.477 97.3386C105.321 97.3386 105.164 97.3386 105.007 97.1817C104.693 96.8681 104.693 96.3976 105.007 96.084C105.948 95.1431 106.418 93.7317 106.418 92.4772C106.418 92.0067 106.732 91.6931 107.202 91.6931C107.673 91.6931 107.986 92.0067 107.986 92.4772C107.986 94.2022 107.359 95.9272 106.261 97.1817C105.948 97.3386 105.634 97.3386 105.477 97.3386Z" fill="#FFCB5B"/>
<path d="M100.772 97.182C99.8315 97.182 99.2043 96.5547 99.2043 95.6139V89.3412C99.2043 88.4003 99.8317 87.7731 100.772 87.7731C101.713 87.7731 102.341 88.4004 102.341 89.3412V95.6139C102.341 96.5547 101.713 97.182 100.772 97.182Z" fill="#F19920"/>
<path d="M107.986 89.4977C108.3 90.4386 108.614 91.3796 108.614 92.4772C108.614 96.8682 105.164 100.318 100.773 100.318C100.302 100.318 99.6751 100.318 99.2046 100.161V100.318C99.2046 101.416 99.3615 102.357 99.6751 103.455C99.9887 103.455 100.459 103.455 100.773 103.455C106.889 103.455 111.75 98.5932 111.75 92.4772C111.75 91.3796 111.593 90.4386 111.28 89.3408C110.966 89.3408 110.496 89.3408 110.182 89.3408C109.398 89.341 108.77 89.341 107.986 89.4977Z" fill="#F6B545"/>
<path d="M108.614 112.864C114.676 112.864 119.591 107.949 119.591 101.886C119.591 95.8238 114.676 90.9091 108.614 90.9091C102.551 90.9091 97.6364 95.8238 97.6364 101.886C97.6364 107.949 102.551 112.864 108.614 112.864Z" fill="#F6B545"/>
<path d="M108.614 90.9092C102.498 90.9092 97.6364 95.7706 97.6364 101.887C97.6364 108.002 102.498 112.864 108.614 112.864C114.73 112.864 119.591 108.002 119.591 101.887C119.591 95.7706 114.73 90.9092 108.614 90.9092ZM108.614 109.727C104.223 109.727 100.773 106.277 100.773 101.887C100.773 97.4956 104.223 94.0456 108.614 94.0456C113.005 94.0456 116.455 97.4956 116.455 101.887C116.455 106.277 113.005 109.727 108.614 109.727Z" fill="#FFCB5B"/>
<path d="M108.614 112.707C114.729 112.864 119.591 107.846 119.591 101.886H119.434C118.65 101.886 118.023 102.514 117.866 103.298C117.552 105.493 116.454 107.532 114.886 108.943C113.632 110.198 111.907 110.982 110.025 111.296C109.241 111.296 108.614 111.923 108.614 112.707Z" fill="#F6B545"/>
<path d="M108.614 91.066C102.498 90.9091 97.6364 95.9274 97.6364 101.886H97.7932C98.5773 101.886 99.2046 101.259 99.3614 100.475C99.675 98.2796 100.773 96.241 102.341 94.8296C103.595 93.575 105.32 92.791 107.202 92.4772C107.986 92.4774 108.614 91.85 108.614 91.066Z" fill="#FFE27A"/>
<path d="M101.871 102.984C101.871 98.5931 105.321 95.1431 109.711 95.1431C111.593 95.1431 113.318 95.7704 114.73 97.0249C113.161 95.1431 111.123 94.0454 108.614 94.0454C104.223 94.0454 100.773 97.4954 100.773 101.886C100.773 104.395 101.87 106.434 103.595 107.845C102.498 106.591 101.871 104.866 101.871 102.984Z" fill="#F19920"/>
<path d="M113.318 106.748C113.161 106.748 113.004 106.748 112.848 106.591C112.534 106.277 112.534 105.807 112.848 105.493C113.788 104.552 114.259 103.141 114.259 101.886C114.259 101.416 114.573 101.102 115.043 101.102C115.513 101.102 115.827 101.416 115.827 101.886C115.827 103.611 115.2 105.336 114.102 106.591C113.788 106.748 113.475 106.748 113.318 106.748Z" fill="#FFCB5B"/>
<path d="M108.614 106.591C107.673 106.591 107.046 105.964 107.046 105.023V98.75C107.046 97.8091 107.673 97.1819 108.614 97.1819C109.555 97.1819 110.182 97.8092 110.182 98.75V105.023C110.182 105.964 109.555 106.591 108.614 106.591Z" fill="#F19920"/>
</g>
<defs>
<filter id="filter0_d" x="11" y="0" width="198" height="198" filterUnits="userSpaceOnUse" color-interpolation-filters="sRGB">
<feFlood flood-opacity="0" result="BackgroundImageFix"/>
<feColorMatrix in="SourceAlpha" type="matrix" values="0 0 0 0 0 0 0 0 0 0 0 0 0 0 0 0 0 0 127 0"/>
<feOffset dx="16" dy="24"/>
<feGaussianBlur stdDeviation="15"/>
<feColorMatrix type="matrix" values="0 0 0 0 0.203854 0 0 0 0 0.361573 0 0 0 0 0.429167 0 0 0 0.08 0"/>
<feBlend mode="normal" in2="BackgroundImageFix" result="effect1_dropShadow"/>
<feBlend mode="normal" in="SourceGraphic" in2="effect1_dropShadow" result="shape"/>
</filter>
<clipPath id="clip0">
<rect width="69" height="69" fill="white" transform="translate(60 47)"/>
</clipPath>
</defs>
</svg>
